<svg width="192" height="192" viewBox="0 0 192 192" fill="none" xmlns="http://www.w3.org/2000/svg">
  <rect width="192" height="192" rx="48" fill="url(#gradient)"/>
  <path d="M96 48C70.5 48 48 70.5 48 96C48 121.5 70.5 144 96 144C121.5 144 144 121.5 144 96C144 70.5 121.5 48 96 48ZM96 132C77.25 132 60 114.75 60 96C60 77.25 77.25 60 96 60C114.75 60 132 77.25 132 96C132 114.75 114.75 132 96 132Z" fill="white"/>
  <path d="M96 72L84 108H108L96 72Z" fill="white"/>
  <circle cx="96" cy="120" r="6" fill="white"/>
  <defs>
    <linearGradient id="gradient" x1="0" y1="0" x2="192" y2="192" gradientUnits="userSpaceOnUse">
      <stop stop-color="#2563EB"/>
      <stop offset="1" stop-color="#7C3AED"/>
    </linearGradient>
  </defs>
</svg>
