<svg width="512" height="512" viewBox="0 0 512 512" fill="none" xmlns="http://www.w3.org/2000/svg">
  <rect width="512" height="512" rx="128" fill="url(#gradient)"/>
  <path d="M256 128C187.5 128 128 187.5 128 256C128 324.5 187.5 384 256 384C324.5 384 384 324.5 384 256C384 187.5 324.5 128 256 128ZM256 352C205.5 352 160 306.5 160 256C160 205.5 205.5 160 256 160C306.5 160 352 205.5 352 256C352 306.5 306.5 352 256 352Z" fill="white"/>
  <path d="M256 192L224 288H288L256 192Z" fill="white"/>
  <circle cx="256" cy="320" r="16" fill="white"/>
  <defs>
    <linearGradient id="gradient" x1="0" y1="0" x2="512" y2="512" gradientUnits="userSpaceOnUse">
      <stop stop-color="#2563EB"/>
      <stop offset="1" stop-color="#7C3AED"/>
    </linearGradient>
  </defs>
</svg>
